<svg xmlns="http://www.w3.org/2000/svg" viewBox="0 0 700 900" width="700" height="900" role="img" aria-label="Capa do Manual Prático de Guerrilha para Criação de Fanzines">
  <defs>
    <pattern id="mcRay" width="30" height="30" patternUnits="userSpaceOnUse" patternTransform="rotate(-24)">
      <rect width="30" height="30" fill="#2563EB"/>
      <rect width="15" height="30" fill="#FFFFFF"/>
    </pattern>
    <pattern id="mcDots" width="6" height="6" patternUnits="userSpaceOnUse">
      <circle cx="3" cy="3" r="1.5" fill="#050505"/>
    </pattern>
    <linearGradient id="mcSpine" x1="0" y1="0" x2="1" y2="0">
      <stop offset="0" stop-color="#050505" stop-opacity="0.55"/>
      <stop offset="1" stop-color="#050505" stop-opacity="0"/>
    </linearGradient>
  </defs>
  <g>
    <rect x="70" y="40" width="560" height="820" fill="#D1D5DB"/>
    <rect x="70" y="40" width="560" height="820" fill="url(#mcRay)" opacity="0.9"/>
    <rect x="96" y="26" width="560" height="820" fill="#FFFFFF" stroke="#050505" stroke-width="6"/>
    <rect x="96" y="26" width="560" height="820" fill="url(#mcDots)" opacity="0.09"/>
    <rect x="96" y="26" width="26" height="820" fill="url(#mcSpine)"/>
    <rect x="136" y="60" width="220" height="40" fill="#050505"/>
    <text x="152" y="88" font-family="'Courier New', monospace" font-size="19" letter-spacing="2" fill="#FACC15">EDIÇÃO INDEPENDENTE</text>
    <g transform="translate(136 120)">
      <g fill="#050505" opacity="0.92">
        <rect x="0" y="0" width="240" height="150" fill="#22C55E"/>
        <rect x="240" y="0" width="240" height="150"/>
        <rect x="0" y="150" width="240" height="150" fill="#FACC15"/>
        <rect x="240" y="150" width="240" height="150" fill="#2563EB"/>
      </g>
      <g fill="none" stroke="#FFFFFF" stroke-width="4" opacity="0.9">
        <path d="M40 110l50-50 60 60-40 40z"/>
        <path d="M62 120h60"/>
        <circle cx="320" cy="70" r="34"/>
        <path d="M270 140h140M270 110h90"/>
      </g>
      <g fill="#050505">
        <circle cx="120" cy="120" r="16"/>
        <path d="M100 240c0-26 12-46 24-46s24 20 24 46z"/>
        <path d="M300 250h150v14H300zM300 274h110v14H300z"/>
      </g>
      <g fill="#FFFFFF">
        <rect x="300" y="40" width="150" height="12"/>
        <rect x="300" y="62" width="110" height="12"/>
      </g>
      <g stroke="#050505" stroke-width="4" fill="none">
        <path d="M20 220l30 20 40-60"/>
        <path d="M280 210h120"/>
      </g>
      <rect x="0" y="300" width="480" height="60" fill="#050505"/>
      <text x="16" y="342" font-family="'Arial Black', Impact, sans-serif" font-size="30" fill="#FFFFFF">DO ZERO AO ZINE</text>
      <text x="330" y="342" font-family="'Courier New', monospace" font-size="17" fill="#FACC15">8 MÓDULOS</text>
    </g>
    <text x="136" y="620" font-family="'Arial Black', Impact, sans-serif" font-size="56" fill="#050505">MANUAL</text>
    <text x="136" y="678" font-family="'Arial Black', Impact, sans-serif" font-size="56" fill="#050505">PRÁTICO DE</text>
    <text x="136" y="736" font-family="'Arial Black', Impact, sans-serif" font-size="56" fill="#050505">GUERRILHA</text>
    <rect x="136" y="756" width="320" height="18" fill="#FACC15"/>
    <rect x="136" y="784" width="200" height="18" fill="#22C55E"/>
    <text x="136" y="828" font-family="'Courier New', monospace" font-size="20" letter-spacing="1.4" fill="#050505">PARA CRIAÇÃO DE FANZINES</text>
    <circle cx="596" cy="792" r="44" fill="#050505"/>
    <text x="596" y="786" font-family="'Arial Black', Impact, sans-serif" font-size="17" fill="#FACC15" text-anchor="middle">20 ANOS</text>
    <text x="596" y="806" font-family="'Courier New', monospace" font-size="13" fill="#FFFFFF" text-anchor="middle">DE MÉTODO</text>
  </g>
</svg>
