<svg xmlns="http://www.w3.org/2000/svg" viewBox="0 0 1200 800" width="100%" height="100%" preserveAspectRatio="xMidYMid slice" role="img">
<defs><linearGradient id="cg3" x1="0" y1="0" x2="1" y2="1"><stop offset="0" stop-color="#ff8a1e"/><stop offset="1" stop-color="#151560"/></linearGradient><pattern id="cd3" width="18" height="18" patternUnits="userSpaceOnUse"><circle cx="9" cy="9" r="3" fill="#ffffff" fill-opacity="0.26"/></pattern><pattern id="cst3" width="34" height="34" patternUnits="userSpaceOnUse" patternTransform="rotate(-25)"><rect width="12" height="34" fill="#6d4bd8" fill-opacity="0.85"/></pattern><filter id="grain" x="0" y="0" width="100%" height="100%"><feTurbulence type="fractalNoise" baseFrequency="0.9" numOctaves="2" stitchTiles="stitch"/><feColorMatrix type="saturate" values="0"/></filter></defs>
  <rect width="1200" height="800" fill="url(#cg3)"/>
  <circle cx="320" cy="210" r="240" fill="#fcd500" opacity=".95"/>
  <rect x="700" y="0" width="500" height="800" fill="url(#cd3)"/>
  <rect x="0" y="600" width="1200" height="200" fill="url(#cst3)"/>
  
  <path d="M80 480h300v22H80z" fill="#ffffff" opacity=".85"/>
  <path d="M80 532h190v22H80z" fill="#ffffff" opacity=".5"/>
  <path transform="translate(1090 170)" d="M0 -88L19.36 -19.36L88 0L19.36 19.36L0 88L-19.36 19.36L-88 0L-19.36 -19.36Z" fill="#fcd500" fill-opacity="0.95"/>
  <circle cx="150" cy="700" r="46" fill="#6d4bd8"/>
  <rect width="100%" height="100%" filter="url(#grain)" opacity="0.16" style="mix-blend-mode:overlay"/>
</svg>
